PathFileType	4	(X/Y/Z)	Walking05.trc	
DataRate	CameraRate	NumFrames	NumMarkers	Units	OrigDataRate	OrigDataStartFrame	OrigNumFrames	
100.00	100.00	12	19	mm	100.00	434	98	
Frame#	Time	RPSI			LPSI			RASI			LASI			RTHI			RKNE			RHFB			RTUB			RSHN			RANK			RLCA			RSTL			RPCA			RCPG			RHEE			RP5M			RP1M			RD5M			RTOE			
		X1	Y1	Z1	X2	Y2	Z2	X3	Y3	Z3	X4	Y4	Z4	X5	Y5	Z5	X6	Y6	Z6	X7	Y7	Z7	X8	Y8	Z8	X9	Y9	Z9	X10	Y10	Z10	X11	Y11	Z11	X12	Y12	Z12	X13	Y13	Z13	X14	Y14	Z14	X15	Y15	Z15	X16	Y16	Z16	X17	Y17	Z17	X18	Y18	Z18	X19	Y19	Z19	

50	0.490	-82.82200	892.43231	123.21272	-79.02919	888.14954	31.32317	92.42644	839.93951	231.93434	122.94913	838.99603	-8.85899	-82.03104	557.66211	239.93060	-128.44420	424.43402	212.06512	-153.06168	389.31284	209.72900	-102.75504	349.87796	159.14308	-152.19955	292.94992	149.20020	-359.53708	123.60068	170.80508	-381.48053	109.53075	162.74884	-369.01196	107.38251	98.37124	-387.95859	142.77489	126.98106	-417.92664	144.28703	125.34393	-414.66360	110.95097	119.55178	-317.51874	31.89807	188.39409	-271.82703	71.12144	116.16108	-287.88464	17.31833	194.85393	-246.02866	30.89211	157.65590 
51	0.500	-66.94001	891.91821	122.86838	-63.15015	887.75726	30.67338	110.09128	838.72278	230.10146	139.14740	839.24866	-10.76750	-62.96021	555.46014	239.55492	-109.02151	422.33234	212.87163	-134.46910	387.79541	210.99100	-84.39818	347.19833	160.97061	-136.88373	291.51910	150.55377	-350.99426	130.89211	171.55516	-373.24417	118.43797	164.10373	-360.59076	115.67591	99.62228	-378.26880	151.56065	128.22086	-407.98383	154.58760	126.49131	-406.03522	121.88023	120.59746	-314.78156	35.89951	188.67325	-266.26462	72.38879	117.58416	-286.57910	19.75293	195.05321	-244.24054	31.81046	157.10104 
52	0.510	-50.41656	891.30676	122.94514	-47.66270	888.11908	30.37405	127.83643	837.81805	227.65822	155.09288	840.17224	-12.86369	-42.44226	552.97003	239.37836	-87.75388	419.96552	214.12917	-114.15270	386.24231	212.76718	-64.78962	344.00607	162.80115	-119.87937	290.07733	152.30045	-340.74396	138.78622	173.20856	-363.28174	126.94492	165.31894	-350.01834	124.37125	100.90477	-366.67917	160.84402	129.44418	-395.78091	165.15738	127.76620	-395.08932	133.56285	121.62945	-311.14514	40.28201	189.07440	-260.99301	73.26082	116.60930	-284.65955	22.63838	195.63057	-242.65594	31.45508	156.18610 
53	0.520	-33.90014	890.65851	123.32315	-32.23172	889.01935	30.30858	145.56277	837.62537	224.62477	170.91837	841.85352	-15.20052	-20.49325	550.26837	239.36868	-64.92496	417.51297	215.93697	-92.27864	384.63016	215.06844	-43.64756	340.60519	165.42162	-100.81454	288.55563	154.76685	-328.30844	146.95883	174.91270	-351.10947	136.52065	166.76262	-337.26913	133.60979	102.53592	-352.19360	171.08292	130.95270	-380.44958	177.13771	129.01794	-381.54623	146.23822	122.78884	-306.48816	45.60253	189.80458	-254.16302	74.02404	116.77724	-281.51434	26.36155	195.67268	-240.74396	31.29040	155.47498 
54	0.530	-17.65829	890.00598	123.93759	-16.64952	890.00812	30.53749	162.94058	837.39984	221.20032	186.62947	844.22156	-17.80275	2.27534	547.56836	239.50482	-40.59328	414.96384	218.39896	-68.93780	382.86029	217.82222	-20.79454	336.87299	168.64445	-80.05055	286.80383	157.79533	-314.87576	155.82755	176.76474	-337.86029	148.20753	169.10326	-323.00626	144.12439	104.45480	-335.47763	182.62117	133.21255	-362.03024	191.05875	130.52820	-366.13351	160.39145	124.57313	-301.31927	52.26847	190.29292	-246.86575	76.61720	117.12025	-278.74969	30.20371	195.19040	-239.09117	31.38665	154.43852 
55	0.540	-1.77227	889.59637	124.74125	-1.41804	890.96106	31.00820	180.19560	837.67297	216.95340	202.08331	847.03302	-20.51643	25.17089	544.77203	240.41275	-15.14963	412.12006	221.24460	-43.87962	380.74133	220.99110	3.65388	333.18817	172.78572	-58.13980	284.85843	161.27386	-301.22562	166.29362	178.32806	-323.66156	161.82407	171.49130	-307.59406	156.36516	106.20441	-317.22891	195.29315	135.80409	-342.50131	205.69933	133.45631	-349.05579	175.81374	126.36188	-295.37521	60.85777	190.24017	-238.41708	81.61348	117.88087	-275.90527	34.66204	194.74190	-235.72426	33.98957	154.77382 
56	0.550	13.79936	889.28601	125.56711	13.59503	891.98157	31.67445	197.32391	838.46570	212.93721	216.93561	849.88263	-23.20366	48.67532	541.85358	241.35440	11.22962	408.88788	224.31750	-17.32352	378.15405	224.62926	29.23634	330.22626	177.45944	-35.30018	283.28885	164.99448	-284.03723	178.02412	179.66234	-305.27924	173.50299	172.10307	-290.21436	168.98706	107.61024	-297.33014	208.31728	137.35947	-321.40195	220.44241	136.57854	-329.41385	191.72079	127.05972	-286.37384	72.42465	191.43057	-227.60664	88.71932	119.49820	-269.64709	42.40221	195.68146	-230.09053	38.54908	156.58755 
57	0.560	29.08031	889.10376	126.30169	29.20616	892.87720	32.39405	214.20171	839.54242	209.11661	231.34634	852.56085	-25.73824	72.77031	539.06256	242.39737	38.46605	405.56125	227.50609	9.97746	375.70087	228.49477	55.25475	327.40186	181.45790	-11.35890	282.43448	168.46367	-263.78897	189.40279	180.64647	-285.56299	186.66737	172.65669	-270.30151	181.23494	108.45831	-274.72110	220.84016	137.93195	-298.22623	234.59479	137.49055	-308.43933	207.03505	128.33321	-274.80566	84.93830	192.68268	-214.52936	96.02697	121.38641	-261.41455	52.26572	196.47011	-222.88130	43.65332	158.51129 
58	0.570	44.11864	888.92719	126.94794	44.02479	894.02106	32.98324	229.86987	840.21698	206.08276	245.40266	854.95056	-28.15427	97.07265	536.67395	243.32668	66.06201	402.63516	230.97675	38.14067	373.41541	232.38010	82.07284	325.53262	185.05118	13.57275	282.09772	171.55721	-240.48257	199.10408	181.26669	-263.55972	199.20641	172.87236	-247.86723	192.83209	108.72726	-249.36658	232.40446	138.44128	-272.18530	247.84711	136.65170	-284.08777	221.56084	128.64494	-261.17093	97.11256	193.00842	-198.74290	103.12260	122.93942	-250.70944	63.81808	196.74329	-213.52547	49.79099	160.34140 
59	0.580	58.86594	888.86591	127.36566	58.32858	895.36145	33.30827	244.94675	841.02264	203.60101	259.41272	857.11444	-30.35565	121.31520	535.48907	244.30597	93.78612	400.56558	234.68729	66.69058	372.12033	236.41122	109.61936	324.57834	188.58138	39.84815	282.42038	174.39929	-215.39919	208.78987	181.34908	-239.12877	211.03952	172.81863	-223.31374	203.07738	108.35188	-222.03947	242.58688	138.28322	-243.47588	259.61667	135.39845	-257.27139	234.53040	127.88663	-244.34036	108.89500	192.95906	-180.74817	109.55000	123.96619	-236.09808	75.40880	196.96622	-200.93987	57.38594	162.38521 
60	0.590	73.39321	888.82123	127.43553	72.38367	896.81207	33.30782	259.71732	842.20953	201.77731	273.25720	858.94763	-32.40940	144.69893	535.87708	245.64449	121.39164	399.92078	238.14902	95.15582	372.20554	240.20128	137.51750	324.46484	191.97984	67.32073	283.49393	177.27261	-190.10358	217.93205	180.54828	-213.00002	222.00743	172.35678	-197.54558	211.21870	107.35581	-194.54924	251.19122	136.95410	-213.56541	269.26813	134.03966	-229.77524	245.02942	125.95831	-224.10983	119.86335	193.27141	-159.90291	115.72506	125.01424	-217.59616	86.20270	197.82004	-183.50835	66.04389	165.58339 
61	0.600	87.65681	888.89551	127.05811	86.33450	898.31702	32.99850	274.35440	844.00830	200.58885	286.81772	860.45886	-34.34437	167.09796	537.51453	247.34183	148.34483	401.12500	241.01332	123.36117	373.72284	243.22162	165.57196	325.18338	195.02119	95.37161	285.69193	179.85289	-163.94266	225.70860	179.27458	-187.42543	230.03232	170.50441	-171.18584	217.78912	106.06721	-167.95746	258.20541	134.76775	-185.25722	276.61450	131.24257	-203.05923	252.64149	123.71908	-199.92809	129.09436	194.02838	-134.75069	122.16768	126.81724	-194.59273	95.62657	199.25539	-159.62170	73.91310	168.66922 
